# xmcd
#
# Track frame offsets:
#	150
#	14362
#	24687
#	36700
#	47125
#	59325
#	69262
#	80850
#	86550
#	95825
#	103000
#	114362
#
# Disc length: 1650 seconds
#
# Revision: 0
# Processed by: cddbd v1.4b41PL3 Copyright (c) Steve Scherf et al.
# Submitted via: audiograbber 1.80
#
DISCID=a506700c
DTITLE=Willie Nelson - Broken Promises
DYEAR=1900
DGENRE=
TTITLE0=No Tomorrow In Sight
TTITLE1=A New Way To Cry
TTITLE2=I'll Stay Around
TTITLE3=Broken Promises
TTITLE4=Happiness Lives Next Door
TTITLE5=Let's Pretend
TTITLE6=I'm Going To Lose A Lot Of Teardrops
TTITLE7=The Ghost
TTITLE8=Waiting Time
TTITLE9=Both Ends Of The Candle
TTITLE10=Go Away
TTITLE11=Right From Wrong
EXTD=
EXTT0=
EXTT1=
EXTT2=
EXTT3=
EXTT4=
EXTT5=
EXTT6=
EXTT7=
EXTT8=
EXTT9=
EXTT10=
EXTT11=
PLAYORDER=
